<svg id="visual" viewBox="0 0 540 960" width="540" height="960" xmlns="http://www.w3.org/2000/svg" xmlns:xlink="http://www.w3.org/1999/xlink" version="1.1"><path d="M0 145L18 141.8C36 138.7 72 132.3 108 137.2C144 142 180 158 216 166C252 174 288 174 324 172.3C360 170.7 396 167.3 432 157.7C468 148 504 132 522 124L540 116L540 0L522 0C504 0 468 0 432 0C396 0 360 0 324 0C288 0 252 0 216 0C180 0 144 0 108 0C72 0 36 0 18 0L0 0Z" fill="#6198ff"></path><path d="M0 289L18 279.3C36 269.7 72 250.3 108 244C144 237.7 180 244.3 216 260.3C252 276.3 288 301.7 324 312.8C360 324 396 321 432 309.8C468 298.7 504 279.3 522 269.7L540 260L540 114L522 122C504 130 468 146 432 155.7C396 165.3 360 168.7 324 170.3C288 172 252 172 216 164C180 156 144 140 108 135.2C72 130.3 36 136.7 18 139.8L0 143Z" fill="#3c80ff"></path><path d="M0 596L18 578.5C36 561 72 526 108 522.8C144 519.7 180 548.3 216 565.8C252 583.3 288 589.7 324 597.7C360 605.7 396 615.3 432 599.3C468 583.3 504 541.7 522 520.8L540 500L540 258L522 267.7C504 277.3 468 296.7 432 307.8C396 319 360 322 324 310.8C288 299.7 252 274.3 216 258.3C180 242.3 144 235.7 108 242C72 248.3 36 267.7 18 277.3L0 287Z" fill="#0066ff"></path><path d="M0 827L18 827C36 827 72 827 108 814.2C144 801.3 180 775.7 216 769.2C252 762.7 288 775.3 324 781.7C360 788 396 788 432 786.5C468 785 504 782 522 780.5L540 779L540 498L522 518.8C504 539.7 468 581.3 432 597.3C396 613.3 360 603.7 324 595.7C288 587.7 252 581.3 216 563.8C180 546.3 144 517.7 108 520.8C72 524 36 559 18 576.5L0 594Z" fill="#0059dd"></path><path d="M0 961L18 961C36 961 72 961 108 961C144 961 180 961 216 961C252 961 288 961 324 961C360 961 396 961 432 961C468 961 504 961 522 961L540 961L540 777L522 778.5C504 780 468 783 432 784.5C396 786 360 786 324 779.7C288 773.3 252 760.7 216 767.2C180 773.7 144 799.3 108 812.2C72 825 36 825 18 825L0 825Z" fill="#004cbb"></path></svg>
