<svg id="visual" viewBox="0 0 540 960" width="540" height="960" xmlns="http://www.w3.org/2000/svg" xmlns:xlink="http://www.w3.org/1999/xlink" version="1.1"><path d="M0 174L22.5 185.2C45 196.3 90 218.7 135 218.7C180 218.7 225 196.3 270 199.5C315 202.7 360 231.3 405 234.5C450 237.7 495 215.3 517.5 204.2L540 193L540 0L517.5 0C495 0 450 0 405 0C360 0 315 0 270 0C225 0 180 0 135 0C90 0 45 0 22.5 0L0 0Z" fill="#c48c5c"></path><path d="M0 519L22.5 512.7C45 506.3 90 493.7 135 460.2C180 426.7 225 372.3 270 391.5C315 410.7 360 503.3 405 535.3C450 567.3 495 538.7 517.5 524.3L540 510L540 191L517.5 202.2C495 213.3 450 235.7 405 232.5C360 229.3 315 200.7 270 197.5C225 194.3 180 216.7 135 216.7C90 216.7 45 194.3 22.5 183.2L0 172Z" fill="#b77943"></path><path d="M0 740L22.5 733.7C45 727.3 90 714.7 135 693.8C180 673 225 644 270 655.2C315 666.3 360 717.7 405 719.3C450 721 495 673 517.5 649L540 625L540 508L517.5 522.3C495 536.7 450 565.3 405 533.3C360 501.3 315 408.7 270 389.5C225 370.3 180 424.7 135 458.2C90 491.7 45 504.3 22.5 510.7L0 517Z" fill="#aa662a"></path><path d="M0 903L22.5 893.5C45 884 90 865 135 849C180 833 225 820 270 824.8C315 829.7 360 852.3 405 854C450 855.7 495 836.3 517.5 826.7L540 817L540 623L517.5 647C495 671 450 719 405 717.3C360 715.7 315 664.3 270 653.2C225 642 180 671 135 691.8C90 712.7 45 725.3 22.5 731.7L0 738Z" fill="#935825"></path><path d="M0 961L22.5 961C45 961 90 961 135 961C180 961 225 961 270 961C315 961 360 961 405 961C450 961 495 961 517.5 961L540 961L540 815L517.5 824.7C495 834.3 450 853.7 405 852C360 850.3 315 827.7 270 822.8C225 818 180 831 135 847C90 863 45 882 22.5 891.5L0 901Z" fill="#7d4b20"></path></svg>